    <svg width="9px" height="9px" xmlns="http://www.w3.org/2000/svg" version="1.1"
    xmlns:xlink="http://www.w3.org/1999/xlink">
    <g transform="scale(1, -1) translate(0, -8)">
        <path d="
m4.66,-.66 a4,4 0,0,1 0,8 a4,4 0,0,1 0,-8z
m-2.75,3 l0,2 1.75,0 0,1.75 2,0 0,-1.75 1.75,0 0,-2 -1.75,0 0,-1.75 -2,0 0,1.75 -1.75,0z
        "/>
        <path fill="#fcb030" d="
m4,0 a4,4 0,0,1 0,8 a4,4 0,0,1 0,-8z
m-2.75,3 l0,2 1.75,0 0,1.75 2,0 0,-1.75 1.75,0 0,-2 -1.75,0 0,-1.75 -2,0 0,1.75 -1.75,0z
        "/>
    </g>
    </svg>