<svg width="10" height="10" xmlns="http://www.w3.org/2000/svg" version="1.1"
    xmlns:xlink="http://www.w3.org/1999/xlink">
    <g transform="scale(1, -1) translate(0, -10)">
        <path fill="#666" d="m 5.5,0 4,0 a0.66,0.66 0 0 1 0.5,0.75 l-4,8 a0.66,0.66 0 0 1 -1,0 l-4,-8 a0.66,0.66 0 0 1 0.5,-0.75 l4,0 Z" />
        <path fill="#e00" d="m 4.5,1 4,0 a0.66,0.66 0 0 1 0.5,0.75 l-4,8 a0.66,0.66 0 0 1 -1,0 l-4,-8 a0.66,0.66 0 0 1 0.5,-0.75 l4,0 Z" />
        <path fill="#fff" d="M 4.5,2 7.75,2 4.5,8.75 1.25,2 Z" />

        <path d="M 4,2 l 1,0 0,1 -1,0 0,-1 z" />
        <path d="M 4,4 l 1,0 0,3 -1,0 0,-3 z" />
    </g>
</svg>